# xmcd
#
# Track frame offsets:
#	150
#	13825
#	28452
#	43271
#	58102
#	74475
#	91196
#	107697
#	125346
#	140923
#	152540
#	176273
#	195990
#	210675
#	225358
#	239079
#	259690
#	279291
#	296673
#	311433
#
# Disc length: 4386 seconds
#
# Revision: 1
# Processed by: cddbd v1.4PL0 Copyright (c) Steve Scherf et al.
# Submitted via: audiograbber 1.82.00
#
DISCID=24112014
DTITLE=Various Artist - Planet DJ country #5
DYEAR=1900
DGENRE=Country
TTITLE0=Jimmy Dean - Big Bad John
TTITLE1=Loretta Lynn - Coal Miners Daughter
TTITLE2=Glen campbell - Rhinestone Cowboy  (Double Two step)
TTITLE3=George Jones - He Stopped Loving Her today (Ballad)
TTITLE4=Michael Peterson - From Here To Eternity   (Ballad)
TTITLE5=Kevin Sharp - Nobody Knows   (Ballad)
TTITLE6=Ty Herndon - Loved Too Much   (Double two)
TTITLE7=Clint Black - Nothing But The Tailights  (2 Step)
TTITLE8=Jo Dee Messina - Bye Bye   (Double Two)
TTITLE9=Travis Tritt - Here's A quarter, Call somone who cares  (Waltz)
TTITLE10=David Allen Coe - You Never even called me by my Name  
TTITLE11=Reba Mcentire - Does he Love you   (Ballad)
TTITLE12=Reba McEntire - Walk On  (2step)
TTITLE13=Reba McEntire - Take It back  (2Step)
TTITLE14=Reba McEntire - Fearing Of Being Alone  (double two)
TTITLE15=Garth Brooks - Ain't Goin down til The sun Comes Up  (East coast)
TTITLE16=Garth Brooks - Friends In Low Places  
TTITLE17=Garth Brooks - The Dance  (Ballad)
TTITLE18=Faith Hill - This Kiss  
TTITLE19=Shania Twain - Man! I Feel Like A woman
EXTD=
EXTT0=
EXTT1=
EXTT2=
EXTT3=
EXTT4=
EXTT5=
EXTT6=
EXTT7=
EXTT8=
EXTT9=
EXTT10=
EXTT11=
EXTT12=
EXTT13=
EXTT14=
EXTT15=
EXTT16=
EXTT17=
EXTT18=
EXTT19=
PLAYORDER=
